<?xml version="1.0" encoding="UTF-8"?>
<svg width="18px" height="18px" viewBox="0 0 18 18" version="1.1" xmlns="http://www.w3.org/2000/svg" xmlns:xlink="http://www.w3.org/1999/xlink">
    <title>icon_update</title>
    <g id="Valuecom-商家页优化_230907" stroke="none" stroke-width="1" fill="none" fill-rule="evenodd">
        <g id="PC-促销优化" transform="translate(-500.000000, -300.000000)">
            <g id="icon_update" transform="translate(500.000000, 300.000000)">
                <rect id="矩形" x="0" y="0" width="18" height="18"></rect>
                <path d="M5.29597154,8.51650988 C3.62988802,6.67439207 2.79684626,5.75333316 2.79684626,5.75333316 C2.2879095,6.72372242 2,7.82823878 2,9 C2,12.8659932 5.13400675,16 9,16 C10.2067532,16 11.3421853,15.6946383 12.3332415,15.1569695 M12.8381873,9.68860478 C14.3463725,11.5197677 15.100465,12.4353492 15.100465,12.4353492 C15.6731937,11.4204851 16,10.2484074 16,9 C16,5.13400675 12.8659932,2 9,2 C7.84917328,2 6.76321011,2.2777139 5.80547168,2.76978053" id="形状" stroke="#222222" stroke-width="1.4"></path>
            </g>
        </g>
    </g>
</svg>